<svg width="12" height="22" viewBox="0 0 12 22" fill="none" xmlns="http://www.w3.org/2000/svg">
<path id="Vector" d="M0.849043 20.8975C0.810933 20.9677 0.790973 21.0464 0.790973 21.1263C0.790973 21.2062 0.810933 21.2848 0.849043 21.3551C0.892673 21.4175 0.951447 21.4679 1.01986 21.5015C1.08827 21.535 1.16408 21.5507 1.24019 21.5469L4.25128 21.5469C4.42553 21.542 4.59438 21.4853 4.73632 21.3841C4.87826 21.2829 4.98687 21.1418 5.04833 20.9787C5.04833 20.9787 11.469 9.59115 11.6904 9.22215L7.45424 1.45089C7.3852 1.28706 7.27065 1.14646 7.12415 1.04575C6.97765 0.945031 6.80535 0.888419 6.62767 0.882618L3.67562 0.882619C3.59811 0.87609 3.52027 0.890445 3.45018 0.924189C3.3801 0.957934 3.32033 1.00984 3.2771 1.0745C3.23694 1.14406 3.2158 1.22297 3.2158 1.30329C3.2158 1.3836 3.23694 1.46251 3.2771 1.53207L7.47638 9.20739L0.849043 20.8975Z" fill="black"/>
</svg>
