<svg width="9" height="11" viewBox="0 0 9 11" fill="none" xmlns="http://www.w3.org/2000/svg">
<path d="M5.7708 0.520668C5.91882 0.620216 6.03479 0.76054 6.10469 0.924648L8.11946 4.49662L4.90173 10.1867C4.83798 10.3518 4.72698 10.4945 4.58259 10.5969C4.4382 10.6993 4.26684 10.7568 4.08992 10.7623L1.13788 10.7623C1.06126 10.7654 0.98523 10.7479 0.917721 10.7115C0.850212 10.6752 0.793706 10.6214 0.754109 10.5557C0.712447 10.4867 0.690428 10.4075 0.690428 10.3269C0.690428 10.2463 0.712447 10.1672 0.754109 10.0981L3.92756 4.49662L1.91279 1.00583C1.87334 0.936031 1.85261 0.85722 1.85261 0.777045C1.85261 0.696871 1.87334 0.618058 1.91279 0.548262C1.96046 0.486947 2.0223 0.438123 2.093 0.405985C2.16371 0.373848 2.24116 0.359357 2.3187 0.363759L5.27074 0.363759C5.44909 0.366617 5.62279 0.421119 5.7708 0.520668Z" fill="url(#paint0_linear_54_2766)"/>
<defs>
<linearGradient id="paint0_linear_54_2766" x1="3.79817" y1="4.21188" x2="4.96866" y2="10.6604" gradientUnits="userSpaceOnUse">
<stop stop-color="#FF56BB"/>
<stop offset="1" stop-color="#FF8F77"/>
</linearGradient>
</defs>
</svg>
