<svg width="24" height="25" viewBox="0 0 24 25" fill="none" xmlns="http://www.w3.org/2000/svg">
<path d="M0.206544 3.87174C0.206544 3.08981 0.510263 2.3399 1.05088 1.78699C1.59151 1.23408 2.32475 0.923462 3.0893 0.923462H17.241C18.0056 0.923462 18.7388 1.23408 19.2794 1.78699C19.8201 2.3399 20.1238 3.08981 20.1238 3.87174V5.22044C21.1188 5.28844 22.0514 5.74068 22.7327 6.48557C23.4139 7.23045 23.7928 8.2123 23.7927 9.23224V20.4893C23.7927 21.5556 23.3786 22.5782 22.6414 23.3321C21.9042 24.0861 20.9043 24.5097 19.8617 24.5097H4.14177C3.0992 24.5097 2.09932 24.0861 1.36211 23.3321C0.624899 22.5782 0.210737 21.5556 0.210737 20.4893V9.23224H0.206544V4.13976H0.218075C0.210307 4.05064 0.206459 3.96121 0.206544 3.87174ZM18.5514 3.87174C18.5514 3.13199 17.9643 2.53161 17.241 2.53161H3.0893C2.74178 2.53161 2.40849 2.6728 2.16275 2.92413C1.91701 3.17545 1.77896 3.51631 1.77896 3.87174C1.77896 4.22716 1.91701 4.56803 2.16275 4.81935C2.40849 5.07067 2.74178 5.21186 3.0893 5.21186H18.5514V3.87174ZM16.7169 14.8608C16.5084 14.8608 16.3084 14.9455 16.161 15.0963C16.0135 15.2471 15.9307 15.4516 15.9307 15.6648C15.9307 15.8781 16.0135 16.0826 16.161 16.2334C16.3084 16.3842 16.5084 16.4689 16.7169 16.4689H19.3376C19.5461 16.4689 19.7461 16.3842 19.8935 16.2334C20.041 16.0826 20.1238 15.8781 20.1238 15.6648C20.1238 15.4516 20.041 15.2471 19.8935 15.0963C19.7461 14.9455 19.5461 14.8608 19.3376 14.8608H16.7169Z" fill="white"/>
</svg>
