<svg width="15" height="8" viewBox="0 0 15 8" fill="none" xmlns="http://www.w3.org/2000/svg">
<path d="M14.9632 1.70347C14.9637 1.85286 14.9307 2.00047 14.8667 2.13545C14.8026 2.27043 14.7092 2.38935 14.5932 2.48347L8.59317 7.31347C8.41423 7.46055 8.18979 7.54095 7.95817 7.54095C7.72654 7.54095 7.5021 7.46055 7.32317 7.31347L1.32317 2.31347C1.11895 2.14373 0.990525 1.89982 0.966145 1.63539C0.941766 1.37096 1.02343 1.10768 1.19317 0.903467C1.3629 0.69925 1.60682 0.570826 1.87124 0.546446C2.13567 0.522067 2.39895 0.603728 2.60317 0.773467L7.96317 5.24347L13.3232 0.923467C13.47 0.801184 13.6487 0.723506 13.8382 0.699627C14.0278 0.675747 14.2202 0.706664 14.3927 0.78872C14.5653 0.870776 14.7107 1.00054 14.8118 1.16265C14.9129 1.32476 14.9654 1.51243 14.9632 1.70347Z" fill="white"/>
</svg>
