<svg width="16" height="16" viewBox="0 0 16 16" fill="none" xmlns="http://www.w3.org/2000/svg">
<path d="M4.83991 9.96865H12.4899C12.9574 9.96865 13.3399 10.3512 13.3399 10.8187C13.3399 11.2862 12.9574 11.6687 12.4899 11.6687H3.98991C3.52241 11.6687 3.1399 11.2862 3.1399 10.8187V2.31865H1.4399C0.972405 2.31865 0.589905 1.93615 0.589905 1.46865C0.589905 1.00115 0.972405 0.618652 1.4399 0.618652H3.98991C4.45741 0.618652 4.83991 1.00115 4.83991 1.46865V3.16865H15.8899L12.4899 9.11865H4.83991V9.96865ZM4.41491 12.5187C5.12041 12.5187 5.68991 13.0882 5.68991 13.7937C5.68991 14.4992 5.12041 15.0687 4.41491 15.0687C3.70941 15.0687 3.1399 14.4992 3.1399 13.7937C3.1399 13.0882 3.70941 12.5187 4.41491 12.5187ZM12.0649 12.5187C12.7704 12.5187 13.3399 13.0882 13.3399 13.7937C13.3399 14.4992 12.7704 15.0687 12.0649 15.0687C11.3594 15.0687 10.7899 14.4992 10.7899 13.7937C10.7899 13.0882 11.3594 12.5187 12.0649 12.5187Z" fill="black"/>
</svg>
