<svg width="18" height="18" viewBox="0 0 18 18" fill="none" xmlns="http://www.w3.org/2000/svg">
<path d="M0.0302734 13.0167C0.0302734 12.6917 0.159374 12.38 0.389174 12.1502C0.618975 11.9204 0.930651 11.7913 1.25564 11.7913H3.70637C4.03136 11.7913 4.34303 11.9204 4.57283 12.1502C4.80263 12.38 4.93173 12.6917 4.93173 13.0167V16.6928C4.93173 17.0178 4.80263 17.3295 4.57283 17.5593C4.34303 17.7891 4.03136 17.9182 3.70637 17.9182H1.25564C0.930651 17.9182 0.618975 17.7891 0.389174 17.5593C0.159374 17.3295 0.0302734 17.0178 0.0302734 16.6928V13.0167ZM6.1571 8.11525C6.1571 7.79026 6.2862 7.47859 6.516 7.24879C6.7458 7.01899 7.05748 6.88989 7.38246 6.88989H9.83319C10.1582 6.88989 10.4699 7.01899 10.6997 7.24879C10.9295 7.47859 11.0586 7.79026 11.0586 8.11525V16.6928C11.0586 17.0178 10.9295 17.3295 10.6997 17.5593C10.4699 17.7891 10.1582 17.9182 9.83319 17.9182H7.38246C7.05748 17.9182 6.7458 17.7891 6.516 17.5593C6.2862 17.3295 6.1571 17.0178 6.1571 16.6928V8.11525ZM12.2839 1.98843C12.2839 1.66344 12.413 1.35176 12.6428 1.12196C12.8726 0.892162 13.1843 0.763062 13.5093 0.763062H15.96C16.285 0.763062 16.5967 0.892162 16.8265 1.12196C17.0563 1.35176 17.1854 1.66344 17.1854 1.98843V16.6928C17.1854 17.0178 17.0563 17.3295 16.8265 17.5593C16.5967 17.7891 16.285 17.9182 15.96 17.9182H13.5093C13.1843 17.9182 12.8726 17.7891 12.6428 17.5593C12.413 17.3295 12.2839 17.0178 12.2839 16.6928V1.98843Z" fill="#D2D2D2"/>
</svg>
