<svg width="21" height="21" viewBox="0 0 21 21" fill="none" xmlns="http://www.w3.org/2000/svg">
<path fill-rule="evenodd" clip-rule="evenodd" d="M1.77246 10.7578C1.77246 6.15777 5.49746 2.42444 10.1058 2.42444C14.7058 2.42444 18.4391 6.15777 18.4391 10.7578C18.4391 15.3661 14.7058 19.0911 10.1058 19.0911C5.49746 19.0911 1.77246 15.3661 1.77246 10.7578ZM11.9641 12.2828L13.3141 8.0161C13.4058 7.72444 13.1391 7.44944 12.8475 7.5411L8.58079 8.87444C8.40579 8.93277 8.26413 9.0661 8.21413 9.24111L6.88079 13.5161C6.78913 13.7994 7.06413 14.0744 7.34746 13.9828L11.5975 12.6494C11.7725 12.5994 11.9141 12.4578 11.9641 12.2828Z" fill="black"/>
</svg>
