<svg width="34" height="30" viewBox="0 0 34 30" fill="none" xmlns="http://www.w3.org/2000/svg">
<path d="M32.2393 6.38855C31.7414 5.23563 31.0234 4.19087 30.1256 3.31275C29.2272 2.432 28.1678 1.73209 27.0053 1.25107C25.7997 0.750294 24.5068 0.49397 23.2014 0.496974C21.37 0.496974 19.5832 0.998464 18.0304 1.94572C17.659 2.17232 17.3061 2.42121 16.9717 2.69239C16.6374 2.42121 16.2845 2.17232 15.913 1.94572C14.3603 0.998464 12.5735 0.496974 10.7421 0.496974C9.4234 0.496974 8.14553 0.749577 6.93824 1.25107C5.77181 1.73398 4.72054 2.42864 3.81785 3.31275C2.91887 4.18988 2.20075 5.23489 1.70417 6.38855C1.18782 7.58841 0.924072 8.86257 0.924072 10.1739C0.924072 11.4109 1.17667 12.6999 1.67816 14.0112C2.09793 15.107 2.69972 16.2438 3.46867 17.3916C4.6871 19.2081 6.36245 21.1026 8.4427 23.0232C11.89 26.2067 15.3038 28.4058 15.4487 28.495L16.3291 29.0596C16.7191 29.3085 17.2206 29.3085 17.6107 29.0596L18.4911 28.495C18.636 28.4021 22.0461 26.2067 25.4971 23.0232C27.5773 21.1026 29.2527 19.2081 30.4711 17.3916C31.2401 16.2438 31.8456 15.107 32.2616 14.0112C32.7631 12.6999 33.0157 11.4109 33.0157 10.1739C33.0194 8.86257 32.7557 7.58841 32.2393 6.38855Z" fill="url(#paint0_linear_34_1465)"/>
<defs>
<linearGradient id="paint0_linear_34_1465" x1="-14.0622" y1="3.6962" x2="59.592" y2="42.5706" gradientUnits="userSpaceOnUse">
<stop stop-color="#FF56BB"/>
<stop offset="1" stop-color="#FF8F77"/>
</linearGradient>
</defs>
</svg>
