<svg width="13" height="12" viewBox="0 0 13 12" fill="none" xmlns="http://www.w3.org/2000/svg">
<path d="M2.14485 6.47957C2.54956 7.08288 3.11725 7.72813 3.83999 8.39538L3.84006 8.39544C4.43865 8.94824 5.03673 9.41763 5.49263 9.75326C5.72012 9.92073 5.911 10.054 6.04726 10.1468C6.11538 10.1932 6.16967 10.2293 6.20786 10.2544C6.24043 10.2758 6.2586 10.2874 6.26355 10.2906C6.26479 10.2914 6.2652 10.2916 6.26481 10.2914L6.27455 10.2974L6.2745 10.2975L6.48985 10.4356L6.7052 10.2975L6.70532 10.2974C6.74526 10.2718 7.93714 9.50471 9.13971 8.39538L2.14485 6.47957ZM2.14485 6.47957C1.88969 6.09868 1.69629 5.73073 1.56434 5.38636L2.14485 6.47957ZM11.9812 2.86448C12.1669 3.29599 12.2618 3.75422 12.2605 4.22581C12.2605 4.67068 12.1696 5.13425 11.9893 5.60584L10.0989 1.01687C10.517 1.18987 10.898 1.44158 11.2211 1.75832C11.544 2.07412 11.8022 2.44986 11.9812 2.86448ZM11.9812 2.86448L11.4168 3.10737C11.4169 3.10741 11.4169 3.10745 11.4169 3.1075M11.9812 2.86448L11.4172 3.1081C11.4171 3.1079 11.417 3.1077 11.4169 3.1075M11.4169 3.1075C11.5696 3.46247 11.6471 3.83745 11.646 4.22407V4.22581C11.646 4.58655 11.5724 4.9758 11.4154 5.38636L11.4148 5.38775C11.2849 5.73 11.0909 6.0973 10.8351 6.47927M11.4169 3.1075C11.2695 2.76644 11.0571 2.45738 10.7915 2.19759L10.791 2.19711C10.5241 1.93546 10.2094 1.72754 9.86399 1.58464L9.86319 1.58431C9.50479 1.43543 9.1204 1.35923 8.73231 1.36012L8.7309 1.36012C8.18466 1.36012 7.65287 1.50964 7.19126 1.79124L7.19124 1.79125C7.08079 1.85863 6.97631 1.93235 6.87758 2.01242L6.49052 2.32638L6.10345 2.01242C6.00473 1.93235 5.90025 1.85863 5.78979 1.79125L5.78978 1.79124C5.32817 1.50964 4.79637 1.36012 4.25014 1.36012C3.8557 1.36012 3.47633 1.4354 3.11784 1.58431L3.11717 1.58459C2.77038 1.72817 2.45845 1.93425 2.18988 2.19729L2.18904 2.19811L2.18904 2.19811C1.92329 2.45741 1.71099 2.76633 1.56419 3.10737L10.8351 6.47927M10.8351 6.47927C10.4304 7.08261 9.86266 7.72792 9.13988 8.39522L10.8351 6.47927ZM1.33369 4.22581C1.33369 3.83798 1.41141 3.4624 1.56417 3.10742L1.56432 5.3863C1.40733 4.97577 1.33369 4.58654 1.33369 4.22581Z" stroke="#888888" stroke-width="1.22889"/>
</svg>
