<svg width="26" height="26" viewBox="0 0 26 26" fill="none" xmlns="http://www.w3.org/2000/svg">
<path d="M11.7667 3.6281C12.189 3.27327 12.7229 3.07874 13.2744 3.07874C13.826 3.07874 14.3598 3.27327 14.7821 3.6281L21.8128 9.54013C22.0745 9.76004 22.2849 10.0345 22.4293 10.3444C22.5737 10.6542 22.6486 10.9919 22.6487 11.3337V21.1533C22.6487 21.5676 22.4841 21.965 22.1911 22.258C21.8981 22.551 21.5007 22.7156 21.0863 22.7156H16.7898C16.3754 22.7156 15.978 22.551 15.685 22.258C15.392 21.965 15.2274 21.5676 15.2274 21.1533V15.685H11.3214V21.1533C11.3214 21.5676 11.1568 21.965 10.8638 22.258C10.5708 22.551 10.1734 22.7156 9.75906 22.7156H5.46252C5.04815 22.7156 4.65076 22.551 4.35776 22.258C4.06475 21.965 3.90015 21.5676 3.90015 21.1533V11.333C3.90023 10.9911 3.9751 10.6534 4.11949 10.3436C4.26389 10.0338 4.47431 9.75926 4.73602 9.53935L11.7667 3.62732V3.6281Z" fill="#F178B6"/>
</svg>
