<svg width="20" height="17" viewBox="0 0 20 17" fill="none" xmlns="http://www.w3.org/2000/svg">
<path fill-rule="evenodd" clip-rule="evenodd" d="M17.0437 8.7586C17.0437 9.5043 17.6838 10.111 18.4706 10.111C18.8674 10.111 19.1894 10.4162 19.1894 10.7923V13.2456C19.1894 15.3201 17.4088 17.0077 15.22 17.0077H3.99308C1.80425 17.0077 0.0227051 15.3201 0.0227051 13.2456V10.7923C0.0227051 10.4162 0.344705 10.111 0.741455 10.111C1.52921 10.111 2.16937 9.5043 2.16937 8.7586C2.16937 8.03197 1.55508 7.48518 0.741455 7.48518C0.550747 7.48518 0.368663 7.41342 0.233538 7.28535C0.0984134 7.15728 0.0227051 6.9838 0.0227051 6.80396L0.0246217 4.27074C0.0246217 2.1962 1.80521 0.50769 3.99404 0.50769H15.218C17.4069 0.50769 19.1884 2.1962 19.1884 4.27074L19.1894 6.72494C19.1894 6.90478 19.1137 7.07917 18.9795 7.20633C18.8444 7.3344 18.6623 7.40615 18.4706 7.40615C17.6838 7.40615 17.0437 8.01289 17.0437 8.7586ZM11.7642 9.35171L12.8941 8.309C13.0905 8.12915 13.1586 7.86393 13.0733 7.61869C12.989 7.37346 12.7685 7.19906 12.5021 7.16364L10.941 6.94747L10.2424 5.60683C10.1226 5.37613 9.87916 5.23262 9.60795 5.23171H9.60604C9.33579 5.23171 9.09237 5.37522 8.97066 5.60592L8.27204 6.94747L6.71379 7.16273C6.4445 7.19906 6.22408 7.37346 6.13879 7.61869C6.05445 7.86393 6.1225 8.12915 6.318 8.309L7.44787 9.35171L7.18146 10.8259C7.13546 11.0802 7.24375 11.3327 7.46416 11.4844C7.58875 11.5688 7.73346 11.6124 7.88008 11.6124C7.99221 11.6124 8.10529 11.5861 8.20879 11.5343L9.60604 10.8386L11.0004 11.5325C11.2419 11.6551 11.5285 11.6361 11.7479 11.4835C11.9693 11.3327 12.0776 11.0802 12.0316 10.8259L11.7642 9.35171Z" fill="#130F26"/>
</svg>
